<svg width="600" height="160" viewBox="0 0 600 160" fill="none" xmlns="http://www.w3.org/2000/svg">
<path d="M59.5301 62.537L72.3011 69.1349L100.5 55.6923V43.0063L59.5301 62.537Z" fill="#0C8EA1"/>
<path fill-rule="evenodd" clip-rule="evenodd" d="M174 52.2374L100.5 17L27 52.2374L27 138.235L38 143.509L38 64.4363L57.078 73.5827C57.1054 73.5961 57.1329 73.6093 57.1605 73.6222L100.5 94.4001L174 59.1626V52.2374ZM45.2225 55.7L59.5068 62.5482L59.5301 62.537L72.3011 68.6349L72.2519 68.6585L100.5 82.2012L155.778 55.7L100.5 29.1988L45.2225 55.7Z" fill="#3F3A3A"/>
<path d="M100.522 107.848L174 72.4438V138.194L163 143.468V89.9543L100.478 120.08L56.5 98.499V86.246L100.522 107.848Z" fill="#0C8EA1"/>
<path d="M198.306 142C197.666 142 197.121 141.767 196.673 141.3C196.224 140.833 196 140.267 196 139.6V74.5C196 73.7667 196.224 73.1667 196.673 72.7C197.121 72.2333 197.666 72 198.306 72H240.012C240.716 72 241.293 72.2333 241.741 72.7C242.19 73.1667 242.414 73.7667 242.414 74.5V81.5C242.414 82.2333 242.19 82.8333 241.741 83.3C241.293 83.7 240.716 83.9 240.012 83.9H209.165V102.9H238.09C238.794 102.9 239.371 103.133 239.819 103.6C240.268 104.067 240.492 104.667 240.492 105.4V112.4C240.492 113.067 240.268 113.633 239.819 114.1C239.371 114.567 238.794 114.8 238.09 114.8H209.165V139.6C209.165 140.267 208.941 140.833 208.492 141.3C208.044 141.767 207.467 142 206.763 142H198.306Z" fill="#0C8EA1"/>
<path d="M256.02 142C255.379 142 254.835 141.767 254.386 141.3C253.938 140.833 253.713 140.267 253.713 139.6V74.5C253.713 73.7667 253.938 73.1667 254.386 72.7C254.835 72.2333 255.379 72 256.02 72H281.773C286.77 72 291.127 72.8333 294.842 74.5C298.558 76.1 301.441 78.5667 303.491 81.9C305.541 85.1667 306.566 89.2667 306.566 94.2C306.566 99.2 305.541 103.333 303.491 106.6C301.441 109.8 298.558 112.2 294.842 113.8C291.127 115.4 286.77 116.2 281.773 116.2H267.455V139.6C267.455 140.267 267.231 140.833 266.782 141.3C266.398 141.767 265.854 142 265.149 142H256.02ZM267.263 105.1H281.293C285.009 105.1 287.859 104.2 289.845 102.4C291.831 100.533 292.824 97.8 292.824 94.2C292.824 90.8667 291.895 88.2 290.038 86.2C288.18 84.1333 285.265 83.1 281.293 83.1H267.263V105.1Z" fill="#0C8EA1"/>
<path d="M319.46 142C318.755 142 318.179 141.767 317.73 141.3C317.282 140.833 317.058 140.267 317.058 139.6V74.5C317.058 73.7667 317.282 73.1667 317.73 72.7C318.179 72.2333 318.755 72 319.46 72H327.051C327.948 72 328.621 72.2667 329.069 72.8C329.518 73.2667 329.806 73.6333 329.934 73.9L348.481 109.9L367.219 73.9C367.347 73.6333 367.636 73.2667 368.084 72.8C368.533 72.2667 369.205 72 370.102 72H377.598C378.302 72 378.879 72.2333 379.327 72.7C379.776 73.1667 380 73.7667 380 74.5V139.6C380 140.267 379.776 140.833 379.327 141.3C378.879 141.767 378.302 142 377.598 142H369.526C368.821 142 368.244 141.767 367.796 141.3C367.411 140.833 367.219 140.267 367.219 139.6V96.3L353.766 123C353.446 123.6 353.029 124.133 352.517 124.6C352.004 125 351.332 125.2 350.499 125.2H346.559C345.662 125.2 344.957 125 344.445 124.6C343.996 124.133 343.612 123.6 343.292 123L329.838 96.3V139.6C329.838 140.267 329.614 140.833 329.166 141.3C328.717 141.767 328.173 142 327.532 142H319.46Z" fill="#0C8EA1"/>
<path d="M421.234 143C415.3 143 410.26 141.933 406.112 139.8C402.029 137.6 398.902 134.5 396.733 130.5C394.563 126.433 393.351 121.567 393.096 115.9C393.032 113.167 393 110.233 393 107.1C393 103.967 393.032 100.967 393.096 98.1C393.351 92.5 394.563 87.6667 396.733 83.6C398.966 79.5333 402.124 76.4333 406.208 74.3C410.355 72.1 415.364 71 421.234 71C425.573 71 429.465 71.6 432.911 72.8C436.356 74 439.291 75.6667 441.716 77.8C444.141 79.8667 446.023 82.3 447.363 85.1C448.703 87.9 449.405 90.9333 449.469 94.2C449.532 94.8 449.341 95.3 448.894 95.7C448.511 96.1 448.033 96.3 447.459 96.3H438.366C437.664 96.3 437.09 96.1333 436.644 95.8C436.197 95.4 435.878 94.7667 435.686 93.9C434.666 89.5 432.911 86.5 430.422 84.9C427.934 83.3 424.839 82.5 421.139 82.5C416.864 82.5 413.45 83.7667 410.898 86.3C408.345 88.7667 406.974 92.8667 406.782 98.6C406.591 104.067 406.591 109.667 406.782 115.4C406.974 121.133 408.345 125.267 410.898 127.8C413.45 130.267 416.864 131.5 421.139 131.5C424.839 131.5 427.934 130.7 430.422 129.1C432.911 127.433 434.666 124.433 435.686 120.1C435.878 119.167 436.197 118.533 436.644 118.2C437.09 117.867 437.664 117.7 438.366 117.7H447.459C448.033 117.7 448.511 117.9 448.894 118.3C449.341 118.7 449.532 119.2 449.469 119.8C449.405 123.067 448.703 126.1 447.363 128.9C446.023 131.7 444.141 134.167 441.716 136.3C439.291 138.367 436.356 140 432.911 141.2C429.465 142.4 425.573 143 421.234 143Z" fill="#3F3A3A"/>
<path d="M455.956 142C455.445 142 454.967 141.8 454.52 141.4C454.137 141 453.946 140.5 453.946 139.9C453.946 139.633 454.01 139.333 454.137 139L477.203 74.5C477.395 73.8333 477.746 73.2667 478.256 72.8C478.83 72.2667 479.596 72 480.553 72H490.986C491.943 72 492.676 72.2667 493.187 72.8C493.697 73.2667 494.08 73.8333 494.335 74.5L517.401 139C517.465 139.333 517.497 139.633 517.497 139.9C517.497 140.5 517.306 141 516.923 141.4C516.54 141.8 516.093 142 515.583 142H507.256C506.363 142 505.693 141.8 505.246 141.4C504.863 140.933 504.608 140.5 504.481 140.1L499.982 127.9H471.557L467.058 140.1C466.931 140.5 466.643 140.933 466.197 141.4C465.814 141.8 465.176 142 464.283 142H455.956ZM474.906 116.4H496.632L485.722 85.5L474.906 116.4Z" fill="#3F3A3A"/>
<path d="M528.729 142C528.091 142 527.549 141.767 527.102 141.3C526.656 140.833 526.432 140.267 526.432 139.6V74.5C526.432 73.7667 526.656 73.1667 527.102 72.7C527.549 72.2333 528.091 72 528.729 72H570.842C571.543 72 572.118 72.2333 572.564 72.7C573.011 73.1667 573.234 73.7667 573.234 74.5V81.1C573.234 81.7667 573.011 82.3333 572.564 82.8C572.118 83.2667 571.543 83.5 570.842 83.5H539.353V101.2H568.736C569.438 101.2 570.012 101.433 570.459 101.9C570.905 102.3 571.129 102.867 571.129 103.6V109.8C571.129 110.533 570.905 111.133 570.459 111.6C570.012 112 569.438 112.2 568.736 112.2H539.353V130.5H571.607C572.309 130.5 572.883 130.733 573.33 131.2C573.777 131.667 574 132.267 574 133V139.6C574 140.267 573.777 140.833 573.33 141.3C572.883 141.767 572.309 142 571.607 142H528.729Z" fill="#3F3A3A"/>
</svg>
